<svg width="10" height="12" viewBox="0 0 10 12" fill="none" xmlns="http://www.w3.org/2000/svg">
<path d="M5.39072 1.07608L5.10819 1.4886C5.12847 1.50249 5.16199 1.53339 5.19496 1.61255L6.06657 4.54951L6.17274 4.90726H6.54591H9.29453C9.37824 4.90726 9.40693 4.9263 9.41412 4.93151C9.42198 4.9372 9.45125 4.96087 9.48017 5.04574L9.95337 4.88448L9.47994 5.04506C9.50815 5.12825 9.49918 5.16364 9.49643 5.17267C9.49375 5.18143 9.48204 5.21409 9.41741 5.26472L7.21167 6.82395L6.91731 7.03203L7.02173 7.37706L7.89801 10.2726C7.91899 10.3499 7.90955 10.3844 7.9052 10.3965C7.90043 10.4098 7.88326 10.4471 7.8092 10.5003L7.80834 10.5009C7.77211 10.5271 7.74686 10.5387 7.73273 10.5436C7.7258 10.5461 7.72137 10.547 7.71918 10.5473C7.71706 10.5477 7.71617 10.5476 7.71606 10.5476H7.71605C7.71591 10.5476 7.7152 10.5476 7.71351 10.5472C7.71258 10.547 7.71107 10.5466 7.70897 10.5459C7.70705 10.5452 7.70462 10.5443 7.70167 10.543C7.68914 10.5375 7.66607 10.5249 7.63324 10.497L7.62287 10.4882L7.61204 10.48L5.30243 8.7239L4.99981 8.4938L4.69718 8.7239L2.38757 10.48L2.37674 10.4882L2.36637 10.497C2.33354 10.5249 2.31048 10.5375 2.29794 10.543C2.29178 10.5457 2.2879 10.5468 2.2861 10.5472C2.28437 10.5476 2.28366 10.5476 2.28355 10.5476H2.28355C2.28341 10.5476 2.28251 10.5476 2.28044 10.5473C2.27825 10.547 2.27382 10.5461 2.26688 10.5436C2.25275 10.5387 2.2275 10.5271 2.19127 10.5009L2.19042 10.5003C2.11636 10.4471 2.09918 10.4098 2.09441 10.3965C2.09006 10.3844 2.08063 10.3499 2.10161 10.2726L2.97789 7.37706L3.0823 7.03203L2.78794 6.82395L0.582205 5.26472C0.517642 5.21415 0.506105 5.18162 0.503508 5.1731C0.500827 5.16429 0.491837 5.12899 0.520208 5.04574L0.520439 5.04506C0.54919 4.9603 0.578309 4.93686 0.585904 4.93135C0.592853 4.92631 0.621346 4.90726 0.70508 4.90726H3.45371H3.82687L3.93304 4.54951L4.80466 1.61255C4.83763 1.53339 4.87115 1.50249 4.89142 1.4886L4.60889 1.07608M5.39072 1.07608L5.10857 1.48886C5.06719 1.46058 5.03451 1.45239 4.99981 1.45239C4.9651 1.45239 4.93242 1.46058 4.89105 1.48886L4.60889 1.07608M5.39072 1.07608C5.27009 0.993618 5.13978 0.952389 4.99981 0.952389C4.85983 0.952389 4.72953 0.993618 4.60889 1.07608M5.39072 1.07608C5.51187 1.15904 5.60425 1.28324 5.66788 1.44867H4.33174C4.39536 1.28324 4.48775 1.15904 4.60889 1.07608M7.30941 10.878C7.56392 11.0943 7.82784 11.1037 8.10117 10.9062C8.37502 10.7092 8.4674 10.4517 8.37832 10.1336L7.30941 10.878ZM7.30941 10.878L4.99981 9.12191L7.30941 10.878Z" stroke="#3C404B"/>
</svg>
