<svg width="10" height="12" viewBox="0 0 10 12" fill="none" xmlns="http://www.w3.org/2000/svg">
<path d="M6.85187 9.12287L6.14541 6.77437L7.86383 5.55238H5.72536L4.9998 3.18479V7.69086L6.85187 9.12287ZM2.68949 10.8795C2.4349 11.0959 2.1709 11.1053 1.89749 10.9077C1.62356 10.7107 1.53114 10.4531 1.62025 10.1348L2.49855 7.23261L0.302794 5.66694C0.0227553 5.46328 -0.0630381 5.20234 0.0454131 4.88411C0.153355 4.56589 0.372803 4.40677 0.703758 4.40677H3.45323L4.33153 1.44728C4.39517 1.2818 4.48759 1.15756 4.60877 1.07457C4.72944 0.992086 4.85978 0.950844 4.9998 0.950844C5.13982 0.950844 5.27017 0.992086 5.39084 1.07457C5.51202 1.15756 5.60443 1.2818 5.66808 1.44728L6.54638 4.40677H9.29585C9.6268 4.40677 9.8465 4.56589 9.95495 4.88411C10.0629 5.20234 9.97685 5.46328 9.69681 5.66694L7.50105 7.23261L8.37935 10.1348C8.46846 10.4531 8.37605 10.7107 8.10212 10.9077C7.8287 11.1053 7.5647 11.0959 7.31012 10.8795L4.9998 9.12287L2.68949 10.8795Z" fill="#D2AB20"/>
</svg>
