<svg width="10" height="12" viewBox="0 0 10 12" fill="none" xmlns="http://www.w3.org/2000/svg">
<path d="M2.6902 10.878C2.4357 11.0943 2.17178 11.1037 1.89844 10.9062C1.6246 10.7092 1.53221 10.4517 1.62129 10.1336L2.49932 7.23224L0.285151 5.66705C0.0179237 5.46345 -0.0614809 5.20258 0.0469371 4.88445C0.154846 4.56633 0.374227 4.40726 0.70508 4.40726H3.45371L4.33174 1.44867C4.39536 1.28325 4.48775 1.15905 4.60889 1.07608C4.72953 0.993622 4.85983 0.952393 4.99981 0.952393C5.13978 0.952393 5.27009 0.993622 5.39072 1.07608C5.51187 1.15905 5.60425 1.28325 5.66788 1.44867L6.54591 4.40726H9.29453C9.62539 4.40726 9.84502 4.56633 9.95344 4.88445C10.0613 5.20258 9.98169 5.46345 9.71446 5.66705L7.50029 7.23224L8.37832 10.1336C8.4674 10.4517 8.37502 10.7092 8.10117 10.9062C7.82784 11.1037 7.56392 11.0943 7.30941 10.878L4.99981 9.12192L2.6902 10.878Z" fill="#D2AB20"/>
</svg>
